<svg width="125" height="326" viewBox="0 0 125 326" fill="none" xmlns="http://www.w3.org/2000/svg">
<path d="M59.8701 138.279C60.3337 138.141 60.8074 138.039 61.287 137.976L80.4289 99.0484L74.5849 90.2806L86.6531 79.7248L101.824 98.3049L70.9252 143.31C71.687 145.013 71.9129 146.907 71.5726 148.741C71.2323 150.575 70.342 152.262 69.0202 153.577C67.6985 154.893 66.0079 155.774 64.1733 156.104C62.3388 156.434 60.4473 156.197 58.7505 155.425C57.0537 154.653 55.6321 153.382 54.6747 151.782C53.7173 150.181 53.2696 148.327 53.3912 146.465C53.5127 144.604 54.1978 142.823 55.3552 141.361C56.5125 139.899 58.0873 138.824 59.8701 138.279Z" fill="#FFB8B8"/>
<path d="M92.5451 85.109C92.2842 85.3837 91.9851 85.6194 91.657 85.8088L72.0728 97.1712C71.1703 97.6947 70.097 97.838 69.0889 97.5695C68.0808 97.301 67.2206 96.6427 66.6975 95.7395C66.6428 95.645 66.592 95.5484 66.5453 95.4496L57.0181 75.3098C56.6127 74.4624 56.5254 73.4973 56.7721 72.5907C57.0187 71.6842 57.5828 70.8966 58.3615 70.3718L70.5013 62.107C71.2593 61.591 72.1734 61.3562 73.086 61.4431C73.9985 61.53 74.8521 61.9331 75.4992 62.5828L92.4673 79.6242C93.1901 80.349 93.6022 81.3271 93.6162 82.3509C93.6302 83.3748 93.2451 84.3638 92.5425 85.1081L92.5451 85.109Z" fill="#CCCCCC"/>
<path d="M120.043 308.15L109.703 310.965L93.9305 272.388L109.192 268.232L120.043 308.15Z" fill="#FFB8B8"/>
<path d="M101.516 310.015L121.457 304.585L124.872 317.147L92.3759 325.996C91.4699 322.664 91.9238 319.107 93.6377 316.11C95.3517 313.112 98.1853 310.918 101.515 310.011L101.516 310.015Z" fill="#2F2E41"/>
<path d="M31.6484 316.046H20.9315L15.8332 274.68H31.6484V316.046Z" fill="#FFB8B8"/>
<path d="M13.2783 312.981H33.9445V326.005H0.266174C0.26606 324.294 0.602506 322.601 1.25632 321.021C1.91014 319.441 2.86848 318.005 4.07669 316.796C5.2849 315.586 6.71928 314.627 8.29794 313.973C9.8766 313.318 11.5695 312.981 13.2783 312.981Z" fill="#2F2E41"/>
<path d="M42.9387 48.3757C54.795 48.3757 64.4065 38.7564 64.4065 26.8905C64.4065 15.0246 54.795 5.4053 42.9387 5.4053C31.0823 5.4053 21.4709 15.0246 21.4709 26.8905C21.4709 38.7564 31.0823 48.3757 42.9387 48.3757Z" fill="#FFB8B8"/>
<path d="M30.9919 286.552H16.3488C15.3471 286.552 14.3832 286.169 13.6527 285.483C12.9222 284.797 12.4799 283.859 12.4155 282.858C8.05224 213.436 10.6045 163.637 20.4482 126.141C20.4912 125.977 20.5443 125.816 20.6072 125.658L21.3939 123.696C21.6838 122.964 22.1873 122.336 22.8389 121.895C23.4904 121.453 24.2598 121.219 25.0466 121.221H55.1597C55.7272 121.221 56.2881 121.343 56.8037 121.581C57.3193 121.818 57.7773 122.164 58.1464 122.595L62.2361 127.372C62.3157 127.464 62.3908 127.56 62.4625 127.659C80.9052 153.4 97.4346 203.724 116.577 271.365C116.86 272.348 116.748 273.402 116.265 274.304C115.782 275.205 114.966 275.882 113.992 276.191L98.2588 281.231C97.3553 281.516 96.3797 281.467 95.5095 281.092C94.6393 280.718 93.9322 280.043 93.517 279.191L52.6783 194.42C52.3927 193.828 51.9241 193.343 51.3419 193.038C50.7596 192.733 50.0946 192.624 49.4455 192.726C48.7963 192.829 48.1974 193.138 47.7375 193.608C47.2776 194.078 46.9812 194.683 46.892 195.335L34.8894 283.149C34.7577 284.09 34.2911 284.953 33.5752 285.578C32.8593 286.204 31.9421 286.549 30.9919 286.552Z" fill="#2F2E41"/>
<path d="M60.5859 127.722H60.4627L23.8824 126.563C22.942 126.537 22.0422 126.173 21.3476 125.538C20.6529 124.903 20.2096 124.04 20.0986 123.105C15.4661 85.5411 28.1784 75.4778 33.8616 72.8928C34.3364 72.6783 34.7477 72.3447 35.0558 71.9243C35.3639 71.5039 35.5583 71.011 35.6201 70.4933L36.1122 66.5569C36.196 65.8615 36.4643 65.2012 36.8893 64.6446C45.7995 53.0933 57.9655 49.3939 64.4222 48.2183C65.4473 48.0339 66.5036 48.2647 67.3588 48.8598C68.2139 49.4549 68.7977 50.3656 68.9819 51.3916C68.9935 51.4562 69.0035 51.521 69.0119 51.5861L69.7487 57.2397C69.8237 57.7789 70.0385 58.2889 70.3719 58.719C88.9535 83.0305 68.2532 118.927 63.9143 125.876C63.5604 126.44 63.0695 126.905 62.4875 127.227C61.9055 127.55 61.2513 127.72 60.5859 127.722Z" fill="#CCCCCC"/>
<path d="M49.0758 174.672L21.4393 180.002L20.3894 174.547L41.5434 170.467L16.9567 105.6L22.1467 103.631L49.0758 174.672Z" fill="#21897E"/>
<path d="M86.251 29.3092C81.462 22.5605 75.7192 16.5435 69.2024 11.4465C63.7833 7.2117 57.7522 3.59279 51.1015 1.8625C44.4508 0.132206 37.1 0.426138 31.0305 3.65491C24.961 6.88368 18.6844 13.2992 18.6459 20.1784C18.6337 22.3889 19.1957 25.3789 21.3704 24.9966L21.9997 25.0841L37.7389 21.9026L44.4421 45.1854C44.9132 46.8212 45.5451 48.6504 47.0966 49.3475C48.558 50.0045 50.2432 49.3852 51.7291 48.7676C51.9721 48.6661 54.0611 43.9721 54.0611 43.9721C54.1134 43.8254 54.204 43.6953 54.3234 43.5953C54.4427 43.4954 54.5866 43.4291 54.7401 43.4034C54.8936 43.3777 55.0513 43.3936 55.1967 43.4493C55.342 43.5049 55.4699 43.5985 55.5671 43.7202L56.8082 45.2729C57.0449 45.5701 57.3719 45.782 57.7396 45.8767C58.1074 45.9714 58.4959 45.9437 58.8466 45.7978L84.5142 35.074C85.6968 34.5797 87.0184 33.9368 87.361 32.699C87.6844 31.5084 86.9607 30.3117 86.251 29.3092Z" fill="#2F2E41"/>
<path d="M57.1746 181.113C58.2983 180.324 59.2355 179.298 59.9202 178.108C60.605 176.917 61.0205 175.591 61.1377 174.222C61.2549 172.853 61.0708 171.475 60.5984 170.185C60.1259 168.896 59.3767 167.725 58.4034 166.756L65.1975 84.641L44.9683 87.4262L44.5837 167.205C43.0632 168.949 42.2351 171.19 42.2563 173.504C42.2776 175.818 43.1467 178.044 44.6989 179.759C46.2511 181.475 48.3784 182.56 50.6772 182.81C52.976 183.059 55.2864 182.456 57.1702 181.114L57.1746 181.113Z" fill="#FFB8B8"/>
<path d="M66.5199 96.4652C66.1411 96.4653 65.7643 96.4108 65.4011 96.3034L43.6842 89.9106C43.1887 89.7647 42.7267 89.5226 42.3247 89.198C41.9226 88.8735 41.5884 88.4729 41.341 88.019C41.0937 87.5652 40.9381 87.0671 40.8831 86.5531C40.8282 86.0391 40.8749 85.5192 41.0206 85.0233C41.0514 84.9186 41.0865 84.8154 41.1258 84.7136L49.1628 63.9343C49.4979 63.0565 50.1372 62.3285 50.9641 61.8833C51.791 61.4382 52.7503 61.3054 53.6669 61.5094L68.0145 64.6306C68.9102 64.8256 69.7096 65.3274 70.2749 66.0495C70.8401 66.7715 71.1357 67.6685 71.1105 68.5855L70.4427 92.6346C70.415 93.6582 69.9898 94.6307 69.2574 95.3457C68.525 96.0607 67.543 96.462 66.5199 96.4643V96.4652Z" fill="#CCCCCC"/>
</svg>
