<svg width="205" height="327" viewBox="0 0 205 327" fill="none" xmlns="http://www.w3.org/2000/svg">
<g clip-path="url(#clip0_1_128)">
<path d="M25.7222 325.504C25.6251 325.343 23.2978 321.456 22.491 313.385C21.7515 305.98 22.2268 293.499 28.6949 276.088C40.9479 243.105 25.871 216.493 25.7173 216.228L26.4611 215.796C29.3633 221.356 31.4602 227.302 32.6888 233.453C35.7255 247.777 34.6198 262.671 29.5012 276.389C17.2695 309.315 26.3632 324.902 26.4563 325.056L25.7222 325.504Z" fill="#F2F2F2"/>
<path d="M20.9312 214.292C24.0174 214.292 26.5193 211.788 26.5193 208.699C26.5193 205.611 24.0174 203.107 20.9312 203.107C17.845 203.107 15.3431 205.611 15.3431 208.699C15.3431 211.788 17.845 214.292 20.9312 214.292Z" fill="#F2F2F2"/>
<path d="M38.5546 234.941C41.6409 234.941 44.1427 232.437 44.1427 229.348C44.1427 226.259 41.6409 223.755 38.5546 223.755C35.4684 223.755 32.9666 226.259 32.9666 229.348C32.9666 232.437 35.4684 234.941 38.5546 234.941Z" fill="#F2F2F2"/>
<path d="M26.5188 248.707C29.605 248.707 32.1069 246.203 32.1069 243.114C32.1069 240.026 29.605 237.522 26.5188 237.522C23.4326 237.522 20.9307 240.026 20.9307 243.114C20.9307 246.203 23.4326 248.707 26.5188 248.707Z" fill="#F2F2F2"/>
<path d="M41.1336 260.322C44.2199 260.322 46.7217 257.818 46.7217 254.73C46.7217 251.641 44.2199 249.137 41.1336 249.137C38.0474 249.137 35.5456 251.641 35.5456 254.73C35.5456 257.818 38.0474 260.322 41.1336 260.322Z" fill="#F2F2F2"/>
<path d="M22.2205 278.39C25.3067 278.39 27.8086 275.886 27.8086 272.797C27.8086 269.708 25.3067 267.205 22.2205 267.205C19.1343 267.205 16.6324 269.708 16.6324 272.797C16.6324 275.886 19.1343 278.39 22.2205 278.39Z" fill="#F2F2F2"/>
<path d="M29.0978 325.708C29.0978 325.708 23.5097 311.942 40.2735 301.617L29.0978 325.708Z" fill="#21897E"/>
<path d="M22.2263 325.46C22.2263 325.46 19.6832 310.822 3.05176e-05 310.947L22.2263 325.46Z" fill="#21897E"/>
<path d="M139.87 138.279C140.334 138.141 140.807 138.039 141.287 137.976L160.429 99.0484L154.585 90.2806L166.653 79.7248L181.824 98.3049L150.925 143.31C151.687 145.013 151.913 146.907 151.573 148.741C151.232 150.575 150.342 152.262 149.02 153.577C147.698 154.893 146.008 155.774 144.173 156.104C142.339 156.434 140.447 156.197 138.751 155.425C137.054 154.653 135.632 153.382 134.675 151.782C133.717 150.181 133.27 148.327 133.391 146.465C133.513 144.604 134.198 142.823 135.355 141.361C136.513 139.899 138.087 138.824 139.87 138.279Z" fill="#FFB8B8"/>
<path d="M172.545 85.109C172.284 85.3837 171.985 85.6194 171.657 85.8088L152.073 97.1712C151.17 97.6947 150.097 97.838 149.089 97.5695C148.081 97.301 147.221 96.6427 146.697 95.7395C146.643 95.645 146.592 95.5484 146.545 95.4496L137.018 75.3098C136.613 74.4624 136.525 73.4973 136.772 72.5907C137.019 71.6842 137.583 70.8966 138.361 70.3718L150.501 62.107C151.259 61.591 152.173 61.3562 153.086 61.4431C153.998 61.53 154.852 61.9331 155.499 62.5828L172.467 79.6242C173.19 80.349 173.602 81.3271 173.616 82.3509C173.63 83.3748 173.245 84.3638 172.542 85.1081L172.545 85.109Z" fill="#CCCCCC"/>
<path d="M200.043 308.15L189.703 310.965L173.93 272.388L189.192 268.232L200.043 308.15Z" fill="#FFB8B8"/>
<path d="M181.516 310.015L201.457 304.585L204.872 317.147L172.376 325.996C171.47 322.664 171.924 319.107 173.638 316.11C175.352 313.112 178.185 310.918 181.515 310.011L181.516 310.015Z" fill="#2F2E41"/>
<path d="M111.648 316.046H100.932L95.8332 274.68H111.648V316.046Z" fill="#FFB8B8"/>
<path d="M93.2783 312.981H113.945V326.005H80.2662C80.2661 324.294 80.6025 322.601 81.2563 321.021C81.9101 319.441 82.8685 318.005 84.0767 316.796C85.2849 315.586 86.7193 314.627 88.2979 313.973C89.8766 313.318 91.5695 312.981 93.2783 312.981Z" fill="#2F2E41"/>
<path d="M122.939 48.3757C134.795 48.3757 144.406 38.7564 144.406 26.8905C144.406 15.0246 134.795 5.4053 122.939 5.4053C111.082 5.4053 101.471 15.0246 101.471 26.8905C101.471 38.7564 111.082 48.3757 122.939 48.3757Z" fill="#FFB8B8"/>
<path d="M110.992 286.552H96.3488C95.3471 286.552 94.3832 286.169 93.6527 285.483C92.9222 284.797 92.4799 283.859 92.4155 282.858C88.0522 213.436 90.6045 163.637 100.448 126.141C100.491 125.977 100.544 125.816 100.607 125.658L101.394 123.696C101.684 122.964 102.187 122.336 102.839 121.895C103.49 121.453 104.26 121.219 105.047 121.221H135.16C135.727 121.221 136.288 121.343 136.804 121.581C137.319 121.818 137.777 122.164 138.146 122.595L142.236 127.372C142.316 127.464 142.391 127.56 142.462 127.659C160.905 153.4 177.435 203.724 196.577 271.365C196.86 272.348 196.748 273.402 196.265 274.304C195.782 275.205 194.966 275.882 193.992 276.191L178.259 281.231C177.355 281.516 176.38 281.467 175.509 281.092C174.639 280.718 173.932 280.043 173.517 279.191L132.678 194.42C132.393 193.828 131.924 193.343 131.342 193.038C130.76 192.733 130.095 192.624 129.445 192.726C128.796 192.829 128.197 193.138 127.738 193.608C127.278 194.078 126.981 194.683 126.892 195.335L114.889 283.149C114.758 284.09 114.291 284.953 113.575 285.578C112.859 286.204 111.942 286.549 110.992 286.552Z" fill="#2F2E41"/>
<path d="M140.586 127.722H140.463L103.882 126.563C102.942 126.537 102.042 126.173 101.348 125.538C100.653 124.903 100.21 124.04 100.099 123.105C95.4661 85.5411 108.178 75.4778 113.862 72.8928C114.336 72.6783 114.748 72.3447 115.056 71.9243C115.364 71.5039 115.558 71.011 115.62 70.4933L116.112 66.5569C116.196 65.8615 116.464 65.2012 116.889 64.6446C125.799 53.0933 137.966 49.3939 144.422 48.2183C145.447 48.0339 146.504 48.2647 147.359 48.8598C148.214 49.4549 148.798 50.3656 148.982 51.3916C148.994 51.4562 149.003 51.521 149.012 51.5861L149.749 57.2397C149.824 57.7789 150.039 58.2889 150.372 58.719C168.954 83.0305 148.253 118.927 143.914 125.876C143.56 126.44 143.07 126.905 142.488 127.227C141.906 127.55 141.251 127.72 140.586 127.722Z" fill="#CCCCCC"/>
<path d="M129.076 174.672L101.439 180.002L100.389 174.547L121.543 170.467L96.9567 105.6L102.147 103.631L129.076 174.672Z" fill="#21897E"/>
<path d="M166.251 29.3092C161.462 22.5605 155.719 16.5435 149.202 11.4465C143.783 7.2117 137.752 3.59279 131.101 1.8625C124.451 0.132206 117.1 0.426138 111.03 3.65491C104.961 6.88368 98.6844 13.2992 98.6459 20.1784C98.6337 22.3889 99.1957 25.3789 101.37 24.9966L102 25.0841L117.739 21.9026L124.442 45.1854C124.913 46.8212 125.545 48.6504 127.097 49.3475C128.558 50.0045 130.243 49.3852 131.729 48.7676C131.972 48.6661 134.061 43.9721 134.061 43.9721C134.113 43.8254 134.204 43.6953 134.323 43.5953C134.443 43.4954 134.587 43.4291 134.74 43.4034C134.894 43.3777 135.051 43.3936 135.197 43.4493C135.342 43.5049 135.47 43.5985 135.567 43.7202L136.808 45.2729C137.045 45.5701 137.372 45.782 137.74 45.8767C138.107 45.9714 138.496 45.9437 138.847 45.7978L164.514 35.074C165.697 34.5797 167.018 33.9368 167.361 32.699C167.684 31.5084 166.961 30.3117 166.251 29.3092Z" fill="#2F2E41"/>
<path d="M137.175 181.113C138.298 180.324 139.236 179.298 139.92 178.108C140.605 176.917 141.021 175.591 141.138 174.222C141.255 172.853 141.071 171.475 140.598 170.185C140.126 168.896 139.377 167.725 138.403 166.756L145.198 84.641L124.968 87.4262L124.584 167.205C123.063 168.949 122.235 171.19 122.256 173.504C122.278 175.818 123.147 178.044 124.699 179.759C126.251 181.475 128.378 182.56 130.677 182.81C132.976 183.059 135.286 182.456 137.17 181.114L137.175 181.113Z" fill="#FFB8B8"/>
<path d="M146.52 96.4652C146.141 96.4653 145.764 96.4108 145.401 96.3034L123.684 89.9106C123.189 89.7647 122.727 89.5226 122.325 89.198C121.923 88.8735 121.588 88.4729 121.341 88.019C121.094 87.5652 120.938 87.0671 120.883 86.5531C120.828 86.0391 120.875 85.5192 121.021 85.0233C121.051 84.9186 121.086 84.8154 121.126 84.7136L129.163 63.9343C129.498 63.0565 130.137 62.3285 130.964 61.8833C131.791 61.4382 132.75 61.3054 133.667 61.5094L148.015 64.6306C148.91 64.8256 149.71 65.3274 150.275 66.0495C150.84 66.7715 151.136 67.6685 151.11 68.5855L150.443 92.6346C150.415 93.6582 149.99 94.6307 149.257 95.3457C148.525 96.0607 147.543 96.462 146.52 96.4643V96.4652Z" fill="#CCCCCC"/>
</g>
<defs>
<clipPath id="clip0_1_128">
<rect width="205" height="327" fill="white"/>
</clipPath>
</defs>
</svg>
